<?xml version="1.0" standalone="no"?>
<!DOCTYPE svg PUBLIC "-//W3C//DTD SVG 20010904//EN"
 "http://www.w3.org/TR/2001/REC-SVG-20010904/DTD/svg10.dtd">
<svg version="1.0" xmlns="http://www.w3.org/2000/svg"
 width="177.000000pt" height="176.000000pt" viewBox="0 0 177.000000 176.000000"
 preserveAspectRatio="xMidYMid meet">

<g transform="translate(0.000000,176.000000) scale(0.100000,-0.100000)"
fill="#FFFFFF" stroke="none">
<path d="M576 1544 c-14 -13 -16 -65 -16 -417 l0 -402 -165 -195 c-168 -197
-188 -231 -139 -238 16 -2 57 39 183 188 89 104 166 190 171 190 5 0 102 -81
216 -180 114 -99 213 -180 219 -180 19 0 36 25 30 43 -4 8 -84 82 -178 163
-95 82 -193 169 -219 193 l-48 44 0 368 0 369 330 0 330 0 0 -84 c0 -46 2 -91
5 -98 4 -9 -8 -20 -34 -31 -53 -24 -81 -70 -81 -136 0 -44 5 -56 35 -90 20
-21 47 -42 60 -45 25 -6 25 -7 25 -125 0 -66 3 -126 6 -135 8 -21 50 -21 58 0
3 9 6 56 6 105 0 49 3 89 8 89 4 0 43 -13 85 -30 88 -34 115 -37 123 -15 10
24 -11 41 -96 76 -44 18 -80 36 -80 40 0 4 8 14 18 21 36 26 52 62 52 115 0
44 -5 58 -32 88 -17 20 -44 42 -61 48 l-29 12 1 116 c2 96 -1 119 -14 133 -15
14 -58 16 -385 16 -322 0 -371 -2 -384 -16z m840 -318 c29 -29 34 -41 34 -81
0 -40 -5 -52 -34 -81 -30 -30 -40 -34 -86 -34 -46 0 -56 4 -86 34 -29 29 -34
41 -34 81 0 40 5 52 34 81 30 30 40 34 86 34 46 0 56 -4 86 -34z"/>
</g>
</svg>
