<?xml version="1.0" standalone="no"?>
<!DOCTYPE svg PUBLIC "-//W3C//DTD SVG 20010904//EN"
 "http://www.w3.org/TR/2001/REC-SVG-20010904/DTD/svg10.dtd">
<svg version="1.0" xmlns="http://www.w3.org/2000/svg"
 width="165.000000pt" height="176.000000pt" viewBox="0 0 165.000000 176.000000"
 preserveAspectRatio="xMidYMid meet">

<g transform="translate(0.000000,176.000000) scale(0.100000,-0.100000)"
fill="#FFFFFF" stroke="none">
<path d="M496 1604 c-14 -13 -16 -65 -16 -417 l0 -402 -72 -85 c-40 -47 -114
-134 -166 -194 -95 -112 -111 -148 -66 -154 15 -2 57 41 183 188 89 104 166
190 171 190 5 0 102 -81 216 -180 113 -99 212 -180 219 -180 19 0 36 25 30 43
-4 8 -84 82 -178 163 -95 82 -193 169 -219 193 l-48 44 0 368 0 369 330 0 330
0 0 -84 c0 -46 3 -91 6 -99 3 -10 -4 -18 -23 -25 -63 -24 -93 -69 -93 -139 0
-47 4 -58 36 -93 20 -22 47 -43 60 -46 24 -6 24 -8 24 -124 0 -65 3 -125 6
-134 8 -21 50 -21 58 0 3 9 6 69 6 134 l0 119 33 16 c49 23 77 71 77 133 0 44
-5 57 -32 88 -18 20 -46 42 -62 49 l-28 12 1 115 c2 95 -1 118 -14 132 -15 14
-58 16 -385 16 -322 0 -371 -2 -384 -16z m840 -318 c29 -29 34 -41 34 -81 0
-42 -5 -52 -36 -81 -30 -29 -43 -34 -84 -34 -41 0 -54 5 -84 34 -31 29 -36 39
-36 81 0 40 5 52 34 81 30 30 40 34 86 34 46 0 56 -4 86 -34z"/>
</g>
</svg>
