<?xml version="1.0" standalone="no"?>
<!DOCTYPE svg PUBLIC "-//W3C//DTD SVG 20010904//EN"
 "http://www.w3.org/TR/2001/REC-SVG-20010904/DTD/svg10.dtd">
<svg version="1.0" xmlns="http://www.w3.org/2000/svg"
 width="177.000000pt" height="176.000000pt" viewBox="0 0 177.000000 176.000000"
 preserveAspectRatio="xMidYMid meet">

<g transform="translate(0.000000,176.000000) scale(0.100000,-0.100000)"
fill="#FFFFFF" stroke="none">
<path d="M586 1474 c-14 -13 -16 -65 -16 -417 l0 -402 -72 -85 c-40 -47 -114
-134 -166 -194 -96 -112 -111 -148 -66 -154 16 -2 57 39 183 188 89 104 166
190 172 190 5 0 102 -81 216 -180 113 -99 212 -180 218 -180 19 0 36 25 30 43
-4 8 -84 82 -178 163 -95 82 -193 169 -219 193 l-48 44 0 368 0 369 330 0 330
0 0 -73 c0 -72 0 -73 -32 -90 -50 -27 -78 -74 -78 -133 0 -52 15 -82 60 -121
l25 -22 -75 -34 c-87 -40 -109 -59 -90 -82 18 -21 28 -19 114 20 43 19 79 35
82 35 2 0 4 -41 4 -90 l0 -91 -80 -76 c-58 -55 -80 -82 -78 -97 6 -42 41 -29
121 45 89 82 67 84 181 -19 62 -56 98 -65 104 -26 2 15 -19 40 -80 95 -46 40
-86 78 -90 84 -10 13 -10 175 0 175 4 0 41 -13 82 -30 85 -33 118 -37 127 -14
9 23 -23 47 -104 78 -40 15 -73 30 -73 33 0 3 16 23 35 44 31 34 35 46 35 91
0 64 -29 111 -82 135 l-38 17 0 92 c0 71 -4 96 -16 108 -13 14 -62 16 -384 16
-322 0 -371 -2 -384 -16z m840 -268 c29 -29 34 -41 34 -81 0 -40 -5 -52 -35
-82 -34 -34 -38 -35 -92 -31 -48 4 -61 10 -85 37 -22 25 -28 41 -28 77 0 39 5
51 34 80 30 30 40 34 86 34 46 0 56 -4 86 -34z"/>
</g>
</svg>
