<?xml version="1.0" standalone="no"?>
<!DOCTYPE svg PUBLIC "-//W3C//DTD SVG 20010904//EN"
 "http://www.w3.org/TR/2001/REC-SVG-20010904/DTD/svg10.dtd">
<svg version="1.0" xmlns="http://www.w3.org/2000/svg"
 width="157.000000pt" height="176.000000pt" viewBox="0 0 157.000000 176.000000"
 preserveAspectRatio="xMidYMid meet">

<g transform="translate(0.000000,176.000000) scale(0.100000,-0.100000)"
fill="#FFFFFF" stroke="none">
<path d="M466 1574 c-14 -13 -16 -65 -16 -417 l0 -402 -166 -195 c-166 -197
-186 -231 -138 -238 16 -2 57 39 183 188 89 104 166 190 171 190 5 0 102 -81
216 -180 114 -99 213 -180 219 -180 7 0 18 7 25 15 19 23 4 39 -232 245 l-208
180 0 370 0 370 330 0 330 0 0 -85 0 -85 35 0 35 0 0 104 c0 82 -3 108 -16
120 -13 14 -62 16 -384 16 -322 0 -371 -2 -384 -16z"/>
</g>
</svg>
