<?xml version="1.0" standalone="no"?>
<!DOCTYPE svg PUBLIC "-//W3C//DTD SVG 20010904//EN"
 "http://www.w3.org/TR/2001/REC-SVG-20010904/DTD/svg10.dtd">
<svg version="1.0" xmlns="http://www.w3.org/2000/svg"
 width="167.000000pt" height="176.000000pt" viewBox="0 0 167.000000 176.000000"
 preserveAspectRatio="xMidYMid meet">

<g transform="translate(0.000000,176.000000) scale(0.100000,-0.100000)"
fill="#FFFFFF" stroke="none">
<path d="M506 1474 c-14 -13 -16 -65 -16 -417 l0 -402 -166 -194 c-168 -197
-188 -232 -138 -239 16 -2 56 39 183 188 89 104 166 190 171 190 5 0 102 -81
216 -180 114 -99 213 -180 220 -180 18 0 35 26 28 43 -3 8 -65 66 -137 129
-73 62 -171 148 -219 191 l-88 78 0 370 0 369 330 0 330 0 0 -74 c0 -65 -3
-75 -19 -81 -11 -3 -36 -24 -55 -45 -32 -35 -36 -46 -36 -93 0 -55 16 -90 60
-125 l25 -21 -76 -35 c-88 -41 -108 -59 -89 -81 18 -21 29 -19 116 20 42 19
78 35 80 35 2 0 4 -40 4 -89 0 -105 5 -121 35 -121 30 0 35 16 35 121 0 51 4
89 10 89 5 0 43 -14 85 -30 85 -34 113 -37 121 -15 10 24 -11 41 -96 76 -81
33 -91 41 -67 56 40 24 61 77 58 145 -1 34 -61 103 -96 112 -24 6 -25 9 -25
100 0 73 -4 98 -16 110 -13 14 -62 16 -384 16 -322 0 -371 -2 -384 -16z m840
-268 c29 -29 34 -41 34 -81 0 -40 -5 -52 -34 -81 -30 -30 -40 -34 -86 -34 -46
0 -56 4 -86 34 -29 29 -34 41 -34 81 0 40 5 52 34 81 30 30 40 34 86 34 46 0
56 -4 86 -34z"/>
</g>
</svg>
