<?xml version="1.0" standalone="no"?>
<!DOCTYPE svg PUBLIC "-//W3C//DTD SVG 20010904//EN"
 "http://www.w3.org/TR/2001/REC-SVG-20010904/DTD/svg10.dtd">
<svg version="1.0" xmlns="http://www.w3.org/2000/svg"
 width="157.000000pt" height="176.000000pt" viewBox="0 0 157.000000 176.000000"
 preserveAspectRatio="xMidYMid meet">

<g transform="translate(0.000000,176.000000) scale(0.100000,-0.100000)"
fill="#FFFFFF" stroke="none">
<path d="M466 1574 c-14 -13 -16 -65 -16 -417 l0 -402 -166 -195 c-166 -197
-186 -231 -138 -238 16 -2 57 39 183 188 89 104 166 190 171 190 5 0 102 -81
216 -180 114 -99 213 -180 219 -180 7 0 18 7 25 15 19 23 4 39 -232 245 l-208
180 0 370 0 370 330 0 330 0 0 -84 c0 -46 3 -91 6 -99 3 -9 -3 -17 -18 -21
-57 -15 -98 -74 -98 -139 0 -88 49 -138 142 -145 49 -4 64 -1 92 19 47 32 66
68 66 128 0 42 -5 56 -32 86 -17 20 -44 42 -61 48 l-29 12 1 116 c2 96 -1 119
-14 133 -15 14 -58 16 -385 16 -322 0 -371 -2 -384 -16z m846 -323 c40 -44 40
-108 0 -152 -24 -27 -37 -33 -85 -37 -54 -4 -58 -3 -92 31 -30 30 -35 42 -35
82 0 40 5 52 35 82 34 34 38 35 92 31 48 -4 61 -10 85 -37z"/>
</g>
</svg>
