<?xml version="1.0" standalone="no"?>
<!DOCTYPE svg PUBLIC "-//W3C//DTD SVG 20010904//EN"
 "http://www.w3.org/TR/2001/REC-SVG-20010904/DTD/svg10.dtd">
<svg version="1.0" xmlns="http://www.w3.org/2000/svg"
 width="177.000000pt" height="176.000000pt" viewBox="0 0 177.000000 176.000000"
 preserveAspectRatio="xMidYMid meet">

<g transform="translate(0.000000,176.000000) scale(0.100000,-0.100000)"
fill="#FFFFFF" stroke="none">
<path d="M516 1474 c-14 -13 -16 -65 -16 -417 l0 -402 -166 -195 c-167 -197
-187 -231 -138 -238 16 -2 57 39 183 188 89 104 166 190 171 190 5 0 95 -75
201 -167 230 -202 233 -204 256 -180 16 16 16 18 -2 41 -11 14 -113 106 -227
206 l-208 180 0 370 0 370 330 0 330 0 0 -73 0 -73 -39 -18 c-53 -23 -81 -69
-81 -132 0 -52 15 -82 60 -121 l25 -22 -75 -34 c-87 -40 -109 -59 -90 -82 18
-21 28 -19 114 20 43 19 79 35 82 35 2 0 4 -41 4 -92 l0 -91 -81 -75 c-59 -55
-79 -80 -77 -96 7 -46 42 -30 137 61 l91 88 0 103 c0 56 3 102 8 102 4 0 41
-13 82 -30 85 -33 118 -37 127 -14 9 24 -24 48 -104 79 -40 15 -73 29 -73 32
0 3 16 23 35 44 30 34 35 46 35 90 0 62 -20 99 -71 130 l-38 24 -1 92 c0 70
-4 95 -16 107 -13 14 -62 16 -384 16 -322 0 -371 -2 -384 -16z m830 -268 c29
-29 34 -41 34 -81 0 -40 -5 -52 -34 -81 -30 -30 -40 -34 -86 -34 -46 0 -56 4
-86 34 -29 29 -34 41 -34 81 0 40 5 52 34 81 30 30 40 34 86 34 46 0 56 -4 86
-34z"/>
</g>
</svg>
