<?xml version="1.0" standalone="no"?>
<!DOCTYPE svg PUBLIC "-//W3C//DTD SVG 20010904//EN"
 "http://www.w3.org/TR/2001/REC-SVG-20010904/DTD/svg10.dtd">
<svg version="1.0" xmlns="http://www.w3.org/2000/svg"
 width="800.000000pt" height="450.000000pt" viewBox="0 0 800.000000 450.000000"
 preserveAspectRatio="xMidYMid meet">

<g transform="translate(0.000000,450.000000) scale(0.100000,-0.100000)"
fill="#FFFFFF" stroke="none">
<path d="M3820 4074 c-14 -2 -59 -9 -100 -15 -307 -44 -628 -187 -874 -388
-92 -76 -247 -237 -313 -326 -173 -231 -291 -512 -345 -815 -18 -100 -17 -460
0 -560 48 -264 129 -481 257 -685 79 -126 126 -185 235 -299 289 -300 615
-472 1040 -548 47 -8 153 -13 280 -13 127 0 233 5 280 13 425 76 751 248 1040
548 109 114 156 173 235 299 128 204 209 421 257 685 17 100 18 460 0 560 -54
303 -172 584 -345 815 -66 89 -221 250 -312 325 -242 198 -520 325 -850 387
-76 14 -429 27 -485 17z m455 -238 c222 -40 472 -144 655 -274 52 -37 145
-116 205 -177 133 -133 225 -260 304 -420 118 -239 165 -440 165 -715 1 -271
-46 -475 -165 -715 -79 -160 -171 -287 -304 -420 -133 -133 -259 -224 -420
-304 -239 -119 -443 -165 -720 -165 -268 0 -475 48 -710 165 -161 80 -287 171
-420 304 -133 133 -225 260 -304 420 -119 239 -165 441 -165 715 0 274 46 476
165 715 79 160 171 287 304 420 133 133 260 225 420 304 180 89 317 129 570
165 62 9 333 -3 420 -18z"/>
<path d="M3455 2781 c-115 -29 -182 -122 -172 -240 18 -227 327 -283 423 -77
54 116 7 243 -111 304 -29 15 -105 22 -140 13z"/>
<path d="M4441 2780 c-91 -22 -171 -125 -171 -219 0 -61 38 -141 84 -176 53
-40 125 -57 187 -44 103 22 171 99 177 202 5 71 -9 113 -53 165 -50 60 -147
91 -224 72z"/>
<path d="M3115 1669 c-49 -27 -91 -52 -93 -54 -2 -2 18 -41 44 -87 122 -207
367 -379 651 -455 89 -24 114 -27 283 -27 169 0 194 3 283 27 284 76 529 248
651 456 39 67 46 85 35 92 -36 24 -181 100 -183 97 -2 -1 -21 -34 -44 -73 -43
-75 -136 -172 -215 -225 -73 -49 -202 -106 -297 -132 -122 -33 -338 -33 -460
0 -230 63 -430 205 -520 370 -19 34 -37 62 -40 62 -3 0 -45 -23 -95 -51z"/>
</g>
</svg>
